HIERARCHY
ROOT Hips
{
	OFFSET 0.00000 0.00000 0.00000
	CHANNELS 6 Xposition Yposition Zposition Zrotation Yrotation Xrotation 
	JOINT LHipJoint
	{
		OFFSET 0 0 0
		CHANNELS 3 Zrotation Yrotation Xrotation
		JOINT LeftUpLeg
		{
			OFFSET 1.42489 -1.84941 0.69647
			CHANNELS 3 Zrotation Yrotation Xrotation
			JOINT LeftLeg
			{
				OFFSET 2.44443 -6.71602 0.00000
				CHANNELS 3 Zrotation Yrotation Xrotation
				JOINT LeftFoot
				{
					OFFSET 2.62838 -7.22137 0.00000
					CHANNELS 3 Zrotation Yrotation Xrotation
					JOINT LeftToeBase
					{
						OFFSET 0.24036 -0.66037 2.29953
						CHANNELS 3 Zrotation Yrotation Xrotation
						End Site
						{
							OFFSET 0.00000 -0.00000 1.19837
						}
					}
				}
			}
		}
	}
	JOINT RHipJoint
	{
		OFFSET 0 0 0
		CHANNELS 3 Zrotation Yrotation Xrotation
		JOINT RightUpLeg
		{
			OFFSET -1.37055 -1.84941 0.69647
			CHANNELS 3 Zrotation Yrotation Xrotation
			JOINT RightLeg
			{
				OFFSET -2.54834 -7.00152 0.00000
				CHANNELS 3 Zrotation Yrotation Xrotation
				JOINT RightFoot
				{
					OFFSET -2.65692 -7.29983 0.00000
					CHANNELS 3 Zrotation Yrotation Xrotation
					JOINT RightToeBase
					{
						OFFSET -0.18839 -0.51760 2.29390
						CHANNELS 3 Zrotation Yrotation Xrotation
						End Site
						{
							OFFSET -0.00000 -0.00000 1.18261
						}
					}
				}
			}
		}
	}
	JOINT LowerBack
	{
		OFFSET 0 0 0
		CHANNELS 3 Zrotation Yrotation Xrotation
		JOINT Spine
		{
			OFFSET 0.05220 2.15489 0.05011
			CHANNELS 3 Zrotation Yrotation Xrotation
			JOINT Spine1
			{
				OFFSET -0.07653 2.14219 -0.05668
				CHANNELS 3 Zrotation Yrotation Xrotation
				JOINT Neck
				{
					OFFSET 0 0 0
					CHANNELS 3 Zrotation Yrotation Xrotation
					JOINT Neck1
					{
						OFFSET 0.01370 1.58638 0.01447
						CHANNELS 3 Zrotation Yrotation Xrotation
						JOINT Head
						{
							OFFSET 0.23548 1.54190 -0.21747
							CHANNELS 3 Zrotation Yrotation Xrotation
							End Site
							{
								OFFSET 0.07132 1.59823 -0.08163
							}
						}
					}
				}
				JOINT LeftShoulder
				{
					OFFSET 0 0 0
					CHANNELS 3 Zrotation Yrotation Xrotation
					JOINT LeftArm
					{
						OFFSET 3.47056 1.45357 -0.58896
						CHANNELS 3 Zrotation Yrotation Xrotation
						JOINT LeftForeArm
						{
							OFFSET 5.19069 -0.00000 0.00000
							CHANNELS 3 Zrotation Yrotation Xrotation
							JOINT LeftHand
							{
								OFFSET 3.30016 -0.00000 0.00000
								CHANNELS 3 Zrotation Yrotation Xrotation
								JOINT LeftFingerBase
								{
									OFFSET 0 0 0
									CHANNELS 3 Zrotation Yrotation Xrotation
									JOINT LeftHandIndex1
									{
										OFFSET 0.70770 -0.00000 0.00000
										CHANNELS 3 Zrotation Yrotation Xrotation
										End Site
										{
											OFFSET 0.57056 -0.00000 0.00000
										}
									}
								}
								JOINT LThumb
								{
									OFFSET 0 0 0
									CHANNELS 3 Zrotation Yrotation Xrotation
									End Site
									{
										OFFSET 0.57928 -0.00000 0.57928
									}
								}
							}
						}
					}
				}
				JOINT RightShoulder
				{
					OFFSET 0 0 0
					CHANNELS 3 Zrotation Yrotation Xrotation
					JOINT RightArm
					{
						OFFSET -2.89018 2.03305 -0.26731
						CHANNELS 3 Zrotation Yrotation Xrotation
						JOINT RightForeArm
						{
							OFFSET -5.23924 -0.00000 0.00000
							CHANNELS 3 Zrotation Yrotation Xrotation
							JOINT RightHand
							{
								OFFSET -3.32953 -0.00000 0.00000
								CHANNELS 3 Zrotation Yrotation Xrotation
								JOINT RightFingerBase
								{
									OFFSET 0 0 0
									CHANNELS 3 Zrotation Yrotation Xrotation
									JOINT RightHandIndex1
									{
										OFFSET -0.60741 -0.00000 0.00000
										CHANNELS 3 Zrotation Yrotation Xrotation
										End Site
										{
											OFFSET -0.48971 -0.00000 0.00000
										}
									}
								}
								JOINT RThumb
								{
									OFFSET 0 0 0
									CHANNELS 3 Zrotation Yrotation Xrotation
									End Site
									{
										OFFSET -0.49719 -0.00000 0.49719
									}
								}
							}
						}
					}
				}
			}
		}
	}
}
MOTION
Frames: 7
Frame Time: .0083333
8.1969 14.6547 7.7130 -2.9750 -39.5799 13.0678 0.0000 0.0000 0.0000 -2.2268 -4.3298 -87.4057 32.9386 15.3834 130.8938 0.4597 -12.0680 -13.7770 1.5784 -7.9265 -22.4910 0.0000 0.0000 0.0000 20.4576 22.9662 -58.1599 -14.7766 -19.3329 74.5629 -1.8100 -10.5901 -31.1056 -0.0721 -1.7328 4.7678 4.6309 -4.2319 43.4301 -1.4023 -4.5602 18.0841 -2.1995 -2.2990 -0.4494 3.0079 2.0756 2.1385 0.1248 3.0048 -26.1217 -0.6784 0.9538 -8.4040 0.0000 -0.0000 0.0000 -8.5247 -67.2450 6.2117 87.5246 -59.9768 -57.8564 -0.0000 0.0000 -51.7727 37.6835 7.6523 5.8727 -7.1250 0.0000 -0.0000 9.4730 39.4443 -1.3106 0.0000 -0.0000 0.0000 69.7470 7.6350 51.4272 -116.3911 57.1973 -82.6403 0.0000 0.0000 8.7935 -39.7621 -0.8765 0.7292 7.1250 -0.0000 -0.0000 -10.4779 -31.0180 -3.6342
8.1673 14.5536 7.7546 -2.8158 -39.9192 12.4953 0.0000 0.0000 0.0000 -1.6756 -4.9833 -89.2207 32.7227 15.5610 130.0844 0.4973 -11.6377 -13.9882 1.5481 -7.8534 -22.2698 0.0000 0.0000 0.0000 20.4683 23.1005 -58.1592 -15.2552 -19.4514 76.0041 -1.9133 -10.6385 -31.7734 -0.0578 -1.5516 4.2681 4.3768 -4.1185 44.1901 -1.5368 -4.5206 18.1746 -2.2030 -2.2947 -0.5395 3.0382 2.1050 2.1029 0.0968 3.0422 -26.3011 -0.6965 0.9656 -8.4581 -0.0000 0.0000 0.0000 -4.3778 -66.9285 1.8629 87.1472 -59.9692 -57.5296 -0.0000 0.0000 -52.6783 37.7553 8.0625 6.1990 -7.1250 0.0000 -0.0000 9.5690 39.9585 -1.2018 -0.0000 0.0000 0.0000 69.6185 8.8664 51.5645 -118.1051 56.7941 -84.0778 0.0000 0.0000 8.5470 -39.3825 -1.4433 1.1845 7.1250 -0.0000 -0.0000 -10.2503 -31.7395 -3.3724
8.1376 14.4533 7.7984 -2.6410 -40.2658 11.9311 0.0000 0.0000 0.0000 -1.1443 -5.6471 -90.9158 32.4508 15.7774 129.0779 0.5407 -11.1377 -14.2453 1.5307 -7.8112 -22.1422 0.0000 0.0000 0.0000 20.4639 23.2487 -58.1501 -15.7256 -19.5562 77.4131 -2.0141 -10.7126 -32.4292 -0.0433 -1.3426 3.6919 4.1408 -4.0131 44.9176 -1.6840 -4.4906 18.2620 -2.2282 -2.2926 -0.6217 3.0715 2.1316 2.0596 0.0605 3.0732 -26.4699 -0.7172 0.9751 -8.5071 -0.0000 0.0000 0.0000 -0.4724 -66.5068 -2.2717 86.7478 -59.9600 -57.1839 -0.0000 0.0000 -53.5772 37.8038 8.4504 6.5038 -7.1250 0.0000 -0.0000 9.6426 40.4428 -1.0951 -0.0000 0.0000 0.0000 69.4973 10.1255 51.7124 -119.6773 56.3953 -85.3903 0.0000 0.0000 8.3264 -39.0688 -2.0205 1.6394 7.1250 -0.0000 -0.0000 -10.0703 -32.4685 -3.1320
8.1075 14.3550 7.8437 -2.4563 -40.6063 11.3744 0.0000 0.0000 0.0000 -0.6235 -6.3325 -92.4720 32.1226 16.0284 127.8800 0.5884 -10.5598 -14.5387 1.5220 -7.7900 -22.0781 0.0000 0.0000 0.0000 20.4546 23.3954 -58.1249 -16.1842 -19.6473 78.7800 -2.1119 -10.8083 -33.0677 -0.0294 -1.1066 3.0423 3.9262 -3.9214 45.6214 -1.8380 -4.4740 18.3435 -2.2686 -2.2946 -0.7017 3.1039 2.1567 2.0148 0.0166 3.0999 -26.6277 -0.7400 0.9837 -8.5519 -0.0000 0.0000 0.0000 3.1429 -65.9994 -6.1529 86.3124 -59.9486 -56.8070 -0.0000 0.0000 -54.4473 37.8229 8.8160 6.7852 -7.1250 0.0000 -0.0000 9.6878 40.8966 -0.9908 -0.0000 0.0000 0.0000 69.3765 11.4061 51.8704 -121.1155 56.0053 -86.5854 0.0000 0.0000 8.1141 -38.8020 -2.6200 2.1050 7.1250 -0.0000 -0.0000 -9.9254 -33.2211 -2.9027
8.0772 14.2594 7.8910 -2.2641 -40.9378 10.8166 0.0000 0.0000 0.0000 -0.1259 -7.0161 -93.8718 31.7393 16.3077 126.5038 0.6395 -9.9047 -14.8663 1.5187 -7.7820 -22.0537 0.0000 0.0000 0.0000 20.4448 23.5346 -58.0681 -16.6285 -19.7253 80.0990 -2.2083 -10.9125 -33.6913 -0.0179 -0.8638 2.3741 3.7370 -3.8458 46.3128 -1.9966 -4.4702 18.4168 -2.3230 -2.3004 -0.7851 3.1323 2.1799 1.9805 -0.0328 3.1227 -26.7769 -0.7638 0.9917 -8.5958 0.0000 0.0000 0.0000 6.4497 -65.4288 -9.7588 85.8281 -59.9341 -56.3879 -0.0000 0.0000 -55.2628 37.8246 9.1486 7.0369 -7.1250 0.0000 -0.0000 9.7144 41.3072 -0.8942 0.0000 0.0000 0.0000 69.2476 12.6925 52.0309 -122.4365 55.6249 -87.6782 0.0000 0.0000 7.8775 -38.5573 -3.2410 2.5802 7.1250 -0.0000 -0.0000 -9.7955 -33.9964 -2.6772
8.0464 14.1675 7.9401 -2.0663 -41.2564 10.2553 0.0000 0.0000 0.0000 0.3396 -7.6920 -95.0992 31.3010 16.6100 124.9569 0.6926 -9.1819 -15.2257 1.5121 -7.7658 -22.0051 0.0000 0.0000 0.0000 20.4374 23.6617 -57.9717 -17.0557 -19.7909 81.3625 -2.3052 -11.0126 -34.3028 -0.0095 -0.6279 1.7256 3.5805 -3.8447 47.9710 -2.1632 -4.4759 17.5743 -2.3585 -2.3062 -0.9448 3.1607 2.2001 1.9662 -0.0823 3.1421 -26.9201 -0.7877 0.9984 -8.6414 0.0000 0.0000 0.0000 9.4502 -64.8219 -13.0836 85.2750 -59.9155 -55.9092 -0.0000 0.0000 -55.9952 37.7930 9.4559 7.2605 -7.1250 0.0000 -0.0000 9.7083 41.6823 -0.8029 0.0000 0.0000 0.0000 69.1147 13.9746 52.1833 -123.6548 55.2547 -88.6815 0.0000 0.0000 7.5818 -38.3020 -3.8677 3.0496 7.1250 -0.0000 -0.0000 -9.6521 -34.7736 -2.4524
8.0149 14.0794 7.9907 -1.8677 -41.5618 9.6955 0.0000 0.0000 0.0000 0.7663 -8.3325 -96.1595 30.8095 16.9288 123.2533 0.7432 -8.4278 -15.5875 1.5001 -7.7363 -21.9159 0.0000 0.0000 0.0000 20.4369 23.7798 -57.8355 -17.4643 -19.8451 82.5678 -2.4039 -11.1017 -34.9056 -0.0040 -0.4102 1.1272 3.4406 -3.7965 48.6730 -2.3171 -4.4904 17.5934 -2.4340 -2.3154 -1.0310 3.1825 2.2157 1.9687 -0.1333 3.1551 -27.0562 -0.8108 1.0031 -8.6877 -0.0000 -0.0000 0.0000 12.1639 -64.2056 -16.1539 84.6392 -59.8911 -55.3591 -0.0000 0.0000 -56.6209 37.7419 9.7366 7.4580 -7.1250 0.0000 -0.0000 9.6817 42.0218 -0.7188 -0.0000 -0.0000 0.0000 68.9590 15.2481 52.3078 -124.7716 54.8982 -89.5972 0.0000 0.0000 7.2061 -38.0231 -4.4908 3.5035 7.1250 -0.0000 -0.0000 -9.4829 -35.5397 -2.2294
